<svg width="0" height="0" class="hidden">
  <symbol xmlns="http://www.w3.org/2000/svg" viewBox="0 0 64 64" id="asian-cuisine-1">
    <title>Asian Cuisine</title>
    <desc>A line styled icon from Orion Icon Library.</desc>
    <path data-name="layer2"
    fill="none" stroke="#202020" stroke-linecap="round" stroke-linejoin="round"
    stroke-width="2" d="M46 2L32.1 30M58 10L40 30M22 62h20" style="stroke:var(--layer1, #202020)"></path>
    <path data-name="layer1" d="M2.1 30a30 30 0 0 0 59.8 0z" fill="none"
    stroke="#202020" stroke-linecap="round" stroke-linejoin="round" stroke-width="2"
    style="stroke:var(--layer1, #202020)"></path>
  </symbol>
  <symbol xmlns="http://www.w3.org/2000/svg" viewBox="0 0 64 64" id="dinner-1">
    <title>Dinner</title>
    <desc>A line styled icon from Orion Icon Library.</desc>
    <circle data-name="layer2"
    cx="33.002" cy="34.991" r="19" fill="none" stroke="#202020" stroke-linecap="round"
    stroke-miterlimit="10" stroke-width="2" stroke-linejoin="round" style="stroke:var(--layer1, #202020)"></circle>
    <circle data-name="layer2" cx="33.002" cy="34.991" r="11" fill="none"
    stroke="#202020" stroke-linecap="round" stroke-miterlimit="10" stroke-width="2"
    stroke-linejoin="round" style="stroke:var(--layer1, #202020)"></circle>
    <path data-name="layer1" d="M2 14v7.428c0 1.482 1.865 4.57 5.906 4.57 4.042 0 6.094-2.1 6.094-4.941V14m-5.999 0v38.001m47.999 0V14s5.999 8.367 5.999 22.001H56"
    fill="none" stroke="#202020" stroke-linecap="round" stroke-miterlimit="10"
    stroke-width="2" stroke-linejoin="round" style="stroke:var(--layer1, #202020)"></path>
  </symbol>
  <symbol xmlns="http://www.w3.org/2000/svg" viewBox="0 0 64 64" id="breakfast-cereal-1">
    <title>Breakfast Cereal</title>
    <desc>A line styled icon from Orion Icon Library.</desc>
    <path data-name="layer1"
    fill="none" stroke="#202020" stroke-linecap="round" stroke-linejoin="round"
    stroke-width="2" d="M43 32v5.1m-34-15V8h34v6M33 58H9V40M3 2l6 6m40-6l-6 6"
    style="stroke:var(--layer2, #202020)"></path>
    <path data-name="layer2" d="M54.7 41.8a8 8 0 0 0-15-1.1A5.9 5.9 0 0 0 37 40a6 6 0 0 0-6 6m12-14L9 40V22.1L43 14v18z"
    fill="none" stroke="#202020" stroke-linecap="round" stroke-linejoin="round"
    stroke-width="2" style="stroke:var(--layer2, #202020)"></path>
    <path data-name="layer1" fill="none" stroke="#202020" stroke-linecap="round"
    stroke-linejoin="round" stroke-width="2" d="M61 26l-8 20m-26 0a17 17 0 0 0 33.9 0z"
    style="stroke:var(--layer2, #202020)"></path>
  </symbol>
  <symbol xmlns="http://www.w3.org/2000/svg" viewBox="0 0 64 64" id="dinner-2">
    <title>Dinner</title>
    <desc>A line styled icon from Orion Icon Library.</desc>
    <circle data-name="layer2"
    cx="32.7" cy="33" r="19" fill="none" stroke="#202020" stroke-linecap="round"
    stroke-linejoin="round" stroke-width="2" style="stroke:var(--layer1, #202020)"></circle>
    <circle data-name="layer2" cx="32.7" cy="33" r="11" fill="none"
    stroke="#202020" stroke-linecap="round" stroke-linejoin="round" stroke-width="2"
    style="stroke:var(--layer1, #202020)"></circle>
    <path data-name="layer1" d="M61.7 34.2V48a2 2 0 0 1-2 2 2 2 0 0 1-2-2V34.1M6.7 12v9.5"
    fill="none" stroke="#202020" stroke-linecap="round" stroke-linejoin="round"
    stroke-width="2" style="stroke:var(--layer1, #202020)"></path>
    <path data-name="layer1" d="M61.7 34.2V12a6.3 6.3 0 0 0-6.3 6.3V31a3.2 3.2 0 0 0 3.2 3.2zm-50.5-9.5L10.5 12H2.9l-.6 12.7a3.5 3.5 0 0 0 2.4 3.5V48a2 2 0 1 0 4 0V28.1a3.5 3.5 0 0 0 2.5-3.4z"
    fill="none" stroke="#202020" stroke-linecap="round" stroke-linejoin="round"
    stroke-width="2" style="stroke:var(--layer1, #202020)"></path>
  </symbol>
  <symbol xmlns="http://www.w3.org/2000/svg" viewBox="0 0 64 64" id="medical-record-1">
    <title>Medical Record</title>
    <desc>A line styled icon from Orion Icon Library.</desc>
    <path data-name="layer2"
    fill="none" stroke="#202020" stroke-linecap="round" stroke-miterlimit="10"
    stroke-width="2" d="M18 2v60h44V16L48 2H18z" stroke-linejoin="round" style="stroke:var(--layer1, #202020)"></path>
    <path data-name="layer2" fill="none" stroke="#202020" stroke-linecap="round"
    stroke-miterlimit="10" stroke-width="2" d="M48 2v14h14M26 26h28v30H26zm10 0v30M26 36h28M26 46h28M38 12h-4V8h-4v4h-4v4h4v4h4v-4h4v-4z"
    stroke-linejoin="round" style="stroke:var(--layer1, #202020)"></path>
    <path data-name="layer1" d="M7.6 55.943l-2.5 5.842a.1.1 0 0 1-.184 0L2.4 55.943a5 5 0 0 1-.4-1.97V7a3 3 0 0 1 3-3 3 3 0 0 1 3 3v46.974a5 5 0 0 1-.4 1.969z"
    fill="none" stroke="#202020" stroke-linecap="round" stroke-miterlimit="10"
    stroke-width="2" stroke-linejoin="round" style="stroke:var(--layer1, #202020)"></path>
    <path data-name="layer1" d="M2 9h8a2 2 0 0 1 2 2v14M2 52h6" fill="none"
    stroke="#202020" stroke-linecap="round" stroke-miterlimit="10" stroke-width="2"
    stroke-linejoin="round" style="stroke:var(--layer1, #202020)"></path>
  </symbol>
  <symbol xmlns="http://www.w3.org/2000/svg" viewBox="0 0 64 64" id="restaurant-1">
    <title>Restaurant</title>
    <desc>A line styled icon from Orion Icon Library.</desc>
    <path data-name="layer2"
    d="M25 2.009v14a4.001 4.001 0 0 1-4 4h-4a4.001 4.001 0 0 1-4-4v-14m6 0V62"
    fill="none" stroke="#202020" stroke-linecap="round" stroke-miterlimit="10"
    stroke-width="2" stroke-linejoin="round" style="stroke:var(--layer1, #202020)"></path>
    <path data-name="layer1" d="M53 13.677c0 5.523-3.582 8.333-8 8.333s-8-2.81-8-8.333c0-5.522 3.582-11.668 8-11.668s8 6.146 8 11.668zm-8 8.333v39.989"
    fill="none" stroke="#202020" stroke-linecap="round" stroke-miterlimit="10"
    stroke-width="2" stroke-linejoin="round" style="stroke:var(--layer1, #202020)"></path>
  </symbol>
</svg>